<svg width="16" height="17" viewBox="0 0 16 17" fill="none" xmlns="http://www.w3.org/2000/svg">
<path fill-rule="evenodd" clip-rule="evenodd" d="M7.99935 3.1665C8.36754 3.1665 8.66602 3.46498 8.66602 3.83317V7.83317H12.666C13.0342 7.83317 13.3327 8.13165 13.3327 8.49984C13.3327 8.86803 13.0342 9.16651 12.666 9.16651H8.66602V13.1665C8.66602 13.5347 8.36754 13.8332 7.99935 13.8332C7.63116 13.8332 7.33268 13.5347 7.33268 13.1665V9.16651H3.33268C2.96449 9.16651 2.66602 8.86803 2.66602 8.49984C2.66602 8.13165 2.96449 7.83317 3.33268 7.83317H7.33268V3.83317C7.33268 3.46498 7.63116 3.1665 7.99935 3.1665Z" fill="#F8F8F9"/>
</svg>
